<?xml version="1.0" encoding="utf-8"?>
<!-- Generator: Adobe Illustrator 21.0.2, SVG Export Plug-In . SVG Version: 6.00 Build 0)  -->
<svg version="1.1" id="Layer_1" xmlns="http://www.w3.org/2000/svg" xmlns:xlink="http://www.w3.org/1999/xlink" x="0px" y="0px"
	 viewBox="0 0 210 202" style="enable-background:new 0 0 210 202;" xml:space="preserve">
<style type="text/css">
	.st0{fill:#FFFFFF;}
	.st1{fill:#DDDDDD;}
	.st2{fill:#EEEEEE;}
	.st3{fill:#F4F4F4;stroke:#DDDDDD;stroke-width:2;stroke-miterlimit:10;}
	.st4{fill:#FFFFFF;stroke:#DDDDDD;stroke-width:2;stroke-miterlimit:10;}
	.st5{fill:#F2F2F2;}
</style>
<g>
	<path class="st0" d="M162.8,80.8c1.1,45.1-35.2,81.9-80,81.9c-13,0-42.8-8.7-59.2-10.1c-13.4-1.1-18.3,3.6-20.8-1.2
		c-3.4-6.6,11.5-15.8,7.8-29.2c-3-10.8-7.8-29.9-7.8-39.5c0-44.8,36.9-81,81.9-80C127.2,3.8,161.8,38.4,162.8,80.8z"/>
	<path class="st1" d="M82.8,163.7c-7,0-18.5-2.4-30.7-5c-10.3-2.2-21-4.4-28.6-5.1c-5.7-0.5-9.9,0.1-13,0.6c-4.2,0.6-6.9,1-8.6-2.3
		c-1.7-3.4,0.5-7.1,3-11.3c3.1-5.1,6.6-11,4.6-18.1c-3.8-13.5-7.8-31-7.8-39.8c0-22,8.7-42.6,24.4-58C42,9.4,62.8,1.2,84.8,1.8
		c20.8,0.5,40.4,8.9,55.2,23.8c14.8,14.8,23.3,34.5,23.8,55.2c0.5,22-7.7,42.8-23,58.5C125.4,155.1,104.8,163.7,82.8,163.7z
		 M19.4,151.5c1.3,0,2.8,0.1,4.3,0.2c7.8,0.6,18.5,2.9,28.9,5.1c11.5,2.4,23.5,5,30.3,5c21.5,0,41.5-8.5,56.5-23.8
		c15-15.3,23-35.6,22.5-57.1l0,0c-0.5-20.3-8.7-39.4-23.2-53.9C124.1,12.5,105,4.2,84.7,3.8C63.3,3.3,43,11.2,27.6,26.2
		C12.3,41.2,3.8,61.3,3.8,82.7c0,8.5,4,25.9,7.7,39.2c2.2,8-1.7,14.5-4.8,19.7c-2.4,3.9-4.2,7-3,9.4c1,1.9,2.4,1.8,6.5,1.2
		C12.6,151.9,15.6,151.5,19.4,151.5z"/>
</g>
<g>
	<ellipse class="st2" cx="54.1" cy="79.2" rx="7.5" ry="2"/>
	<ellipse class="st2" cx="123.6" cy="79.2" rx="7.5" ry="2"/>
</g>
<path id="path26" class="st3" d="M88.3,95.3c-7,0.1-11.7-0.7-17.5-1.8c-1.3-0.2-3.9,0-3.9,3.9c0.1,7.8,9.1,17.4,21.5,17.3
	c12.5-0.1,21.3-9.9,21.3-17.7c0-3.9-2.6-4.1-3.9-3.9C100,94.4,95.4,95.2,88.3,95.3"/>
<path class="st2" d="M5.5,151.5c0,0,9.1-11.8,29.6-10.5c0,0,6.4-0.4,19.9,5.1c0,0,16.4,6.1,28.4,5.5c0,0,24.1,1.2,46.2-12.5
	c0,0,11.8-6.6,19.9-15.9c0,0-14.4,28-50.7,35.9c-1.2,0.2-7,1.2-8.9,1.3c-4.5,0.2-1.7,0.6-10.1,0.2c-6.5-0.2-17.3-2.8-27.4-4.9
	c0,0-11.8-2.6-21.2-4.1c-3.4-0.5-6.4-0.9-9.2-1c-5.2-0.2-9.7,0.5-14.2,1C6.9,151.7,6,151.7,5.5,151.5z"/>
<path class="st0" d="M96.3,147.7c-0.7,29.8,23.3,54.2,53,54.2c8.6,0,28.3-5.8,39.2-6.7c8.9-0.7,12.1,2.4,13.7-0.8
	c2.2-4.4-7.6-10.4-5.1-19.4c2-7.1,5.1-19.8,5.1-26.2c0-29.7-24.4-53.7-54.2-53C119.9,96.7,97,119.6,96.3,147.7z"/>
<path class="st4" d="M102.2,147.5c-0.6,26.6,20.7,48.3,47.1,48.3c7.7,0,25.2-5.1,34.9-5.9c7.9-0.7,10.8,2.1,12.2-0.7
	c2-3.9-6.8-9.3-4.6-17.2c1.8-6.3,4.6-17.6,4.6-23.3c0-26.4-21.7-47.8-48.3-47.1C123.2,102.1,102.8,122.5,102.2,147.5z"/>
<g>
	<ellipse class="st2" cx="167.6" cy="143.1" rx="4.4" ry="1.2"/>
	<ellipse class="st2" cx="125.7" cy="143.1" rx="4.4" ry="1.2"/>
</g>
<path id="path26_2_" class="st3" d="M146.8,147.5c-4.7,0-7.8-0.6-11.7-1.4c-0.9-0.2-2.6,0-2.6,2.6c0,5.2,5.9,11.8,14.2,11.8
	c8.3,0.1,14.4-6.4,14.4-11.6c0-2.6-1.7-2.8-2.6-2.6C154.7,147.1,151.6,147.6,146.8,147.5"/>
<path class="st2" d="M194.8,187.9c0,0-5.3-5.6-17.3-4.9c0,0-3.8-0.2-11.7,3c0,0-9.7,3.6-16.7,3.3c0,0-14.2,0.7-27.2-7.4
	c0,0-6.5-4.7-11.3-10.1c0,0,8.3,16.5,29.4,21.1c1.9,0.5,5,0.8,6.2,0.8c2.7,0.1,3.6,0.4,10.4-0.6c3.3-0.5,6.4-1.3,12.4-2.6
	c0,0,4.1-0.9,9.9-1.9c2-0.4,4.7-0.7,6.4-0.8c2.9-0.2,5.6,0.3,8.2,0.6C193.8,188.5,195,188.8,194.8,187.9z"/>
<g>
	<path class="st1" d="M121.7,137.6c-0.3,0.6-1.1,0.7-1.6,0.4c-0.6-0.3-0.7-1-0.4-1.6c0.1-0.1,2-3.3,6.2-3.3c4.2,0,6.1,3.2,6.2,3.3
		c0.3,0.6,0.1,1.3-0.4,1.6c-0.2,0.1-0.4,0.2-0.6,0.2c-0.4,0-0.8-0.2-1-0.6c-0.1-0.1-1.3-2.1-4.2-2.1
		C123.1,135.5,121.8,137.5,121.7,137.6z"/>
	<path class="st1" d="M173.4,138c-0.2,0.1-0.4,0.2-0.6,0.2c-0.4,0-0.8-0.2-1-0.6c0-0.1-1.3-2.1-4.2-2.1c-2.9,0-4.2,2.1-4.2,2.1
		c-0.3,0.6-1,0.7-1.6,0.4c-0.6-0.3-0.7-1.1-0.4-1.6c0.1-0.1,2-3.3,6.2-3.3c4.2,0,6.1,3.2,6.2,3.3C174.1,137,174,137.7,173.4,138z"/>
</g>
<g>
	<path class="st1" d="M128.2,67.4c0.4-0.6,1.2-0.8,1.8-0.5s0.8,1.2,0.5,1.8c-0.1,0.2-2.3,3.7-7.1,3.7c-4.8,0-7-3.6-7.1-3.7
		c-0.4-0.6-0.2-1.5,0.5-1.8c0.2-0.1,0.4-0.2,0.7-0.2c0.5,0,0.9,0.2,1.2,0.6c0.1,0.1,1.5,2.4,4.8,2.4
		C126.7,69.8,128.1,67.5,128.2,67.4z"/>
	<path class="st1" d="M47.5,66.9c0.2-0.1,0.4-0.2,0.7-0.2c0.5,0,0.9,0.2,1.2,0.7c0.1,0.1,1.5,2.4,4.8,2.4c3.3,0,4.8-2.4,4.8-2.4
		c0.4-0.6,1.2-0.9,1.8-0.5c0.6,0.4,0.9,1.2,0.5,1.8c-0.1,0.2-2.3,3.7-7.1,3.7c-4.8,0-7-3.6-7.1-3.7C46.6,68.1,46.8,67.3,47.5,66.9z"
		/>
</g>
<path class="st5" d="M167.2,28.8l-0.8,2.7c0,0,0,0.1-0.1,0.1l-2.1,1.8c-0.1,0.1-0.1,0.4,0.1,0.4l2.7,0.8c0,0,0.1,0,0.1,0.1l1.8,2.1
	c0.1,0.1,0.4,0.1,0.4-0.1l0.8-2.7c0,0,0-0.1,0.1-0.1l2.1-1.8c0.1-0.1,0.1-0.4-0.1-0.4l-2.7-0.8c0,0-0.1,0-0.1-0.1l-1.8-2.1
	C167.5,28.6,167.3,28.6,167.2,28.8z"/>
<g>
	<g>
		<path class="st5" d="M156.4,11.1h-2.1V9c0-1-0.8-1.9-1.9-1.9c-1,0-1.9,0.8-1.9,1.9v2.1h-1.7c-1,0-1.9,0.8-1.9,1.9s0.8,1.9,1.9,1.9
			h1.7v1.7c0,1,0.8,1.9,1.9,1.9c1,0,1.9-0.8,1.9-1.9v-1.7h2.1c1,0,1.9-0.8,1.9-1.9S157.4,11.1,156.4,11.1z"/>
	</g>
</g>
<g>
	<path class="st2" d="M189.4,94.6l-3.9,8.1c-0.4,0.7-1.3,1.1-2,0.7l0,0c-0.7-0.4-1.1-1.3-0.7-2l3.9-8.1c0.4-0.7,1.3-1.1,2-0.7l0,0
		C189.5,92.9,189.8,93.8,189.4,94.6z"/>
	<path class="st2" d="M199.7,103.3l-6.7,6c-0.6,0.6-1.6,0.5-2.1-0.1l0,0c-0.6-0.6-0.5-1.6,0.1-2.1l6.7-6c0.6-0.6,1.6-0.5,2.1,0.1
		l0,0C200.4,101.8,200.3,102.8,199.7,103.3z"/>
	<path class="st2" d="M204.9,116.4l-8.8,1.9c-0.8,0.2-1.6-0.3-1.8-1.1l0,0c-0.2-0.8,0.3-1.6,1.1-1.8l8.8-1.9
		c0.8-0.2,1.6,0.3,1.8,1.1l0,0C206.3,115.4,205.8,116.2,204.9,116.4z"/>
</g>
<path class="st5" d="M173.6,11.6l-1,2.1c-0.1,0.1-0.2,0.2-0.3,0.2l-2.3,0.3c-0.4,0.1-0.5,0.5-0.2,0.8l1.7,1.6
	c0.1,0.1,0.2,0.3,0.1,0.4l-0.4,2.3c-0.1,0.4,0.3,0.6,0.7,0.5l2.1-1.1c0.1-0.1,0.3-0.1,0.4,0l2.1,1.1c0.3,0.2,0.7-0.1,0.7-0.5
	l-0.4-2.3c0-0.1,0-0.3,0.1-0.4l1.7-1.6c0.3-0.3,0.1-0.7-0.2-0.8l-2.3-0.3c-0.1,0-0.3-0.1-0.3-0.2l-1-2.1
	C174.2,11.3,173.7,11.3,173.6,11.6z"/>
</svg>
